<svg width="80" height="80" viewBox="0 0 80 80" fill="none" xmlns="http://www.w3.org/2000/svg">
<path d="M52.9121 41.7023C52.7825 41.6701 52.6471 41.6695 52.5171 41.7004C52.3872 41.7314 52.2666 41.793 52.1654 41.8801C47.8321 45.6035 49.2799 52.8146 53.7821 52.8146C55.8832 52.8146 58.0499 50.9879 58.0899 47.0446C58.1065 45.2679 57.6954 43.8623 56.8665 42.8701C55.9754 41.7979 54.3165 41.1523 52.9121 41.7023Z" fill="white"/>
<path d="M15.146 49.4313C14.2148 50.4202 13.8204 51.9313 13.7682 53.3346C13.586 58.2379 16.3982 61.5235 19.6726 62.0457C20.2148 62.1313 20.7704 62.1213 21.3148 62.0402L22.0182 64.0068L19.8237 65.7679C19.1864 65.4284 18.5591 65.0705 17.9426 64.6946C17.8494 64.6373 17.7458 64.5988 17.6377 64.5816C17.5296 64.5643 17.4192 64.5684 17.3127 64.5938C17.2062 64.6192 17.1058 64.6653 17.0171 64.7295C16.9284 64.7937 16.8533 64.8747 16.796 64.9679C16.7386 65.0612 16.7002 65.1648 16.6829 65.2729C16.6656 65.381 16.6698 65.4914 16.6951 65.5979C16.7205 65.7044 16.7666 65.8048 16.8308 65.8935C16.895 65.9821 16.976 66.0573 17.0693 66.1146C23.3415 69.9735 30.5448 71.7857 37.7704 73.7502C41.5237 74.7802 46.0082 74.439 49.9448 74.1879C53.9237 73.9402 56.2115 72.0702 59.5971 69.8579C59.9304 69.9857 60.2793 70.0646 60.6526 70.0646C62.0748 70.0646 63.9782 68.9979 64.8048 68.0891C66.7993 65.8991 65.1771 63.0513 62.6571 62.9979C60.406 63.0246 58.2837 64.8868 58.2782 68.7202L58.2804 68.7313C55.2626 70.7268 53.2093 72.3146 49.8404 72.5246C46.1515 72.7591 41.7182 73.1046 38.2115 72.1424C32.5093 70.5835 26.7204 69.1235 21.4615 66.5924C22.5948 65.6791 22.9393 65.4013 23.4437 65.0002C23.6326 64.8491 23.9204 64.3757 23.7693 63.9557L22.9893 61.7724C23.2426 61.7646 23.4948 61.7391 23.7448 61.6924C23.7626 61.7079 23.7715 61.7302 23.7904 61.7446C25.8226 63.3424 28.8937 63.6646 31.4382 62.4924C44.6815 56.3924 31.6004 32.2724 20.0826 41.7624C17.8915 32.9779 18.8215 23.4646 22.8748 15.6246C23.1582 15.0746 22.9726 14.6291 22.5826 14.4202L21.9715 14.0935C24.9115 8.46572 34.1215 4.83016 43.6448 9.02905C43.4338 9.00714 43.2222 9.06638 43.0532 9.19473C42.8842 9.32309 42.7704 9.51094 42.7348 9.72016C42.096 13.7579 41.4615 18.1002 40.8271 22.1013C40.81 22.2094 40.8143 22.3198 40.8399 22.4263C40.8655 22.5327 40.9118 22.6331 40.9762 22.7216C41.0406 22.8101 41.1218 22.8851 41.2152 22.9422C41.3085 22.9994 41.4123 23.0376 41.5204 23.0546C41.896 23.1102 40.2371 22.8857 46.126 23.3479C46.7089 25.1298 47.5505 26.8163 48.6237 28.3535C48.6873 28.4477 48.7702 28.5272 48.8669 28.5868C48.9636 28.6465 49.0719 28.6848 49.1846 28.6993C49.2973 28.7138 49.4118 28.7042 49.5205 28.671C49.6291 28.6378 49.7295 28.5818 49.8148 28.5068C50.7581 27.9943 51.7624 27.6031 52.8037 27.3424C53.0837 26.4568 53.1471 25.6913 53.3526 24.8391C53.7126 24.8991 54.076 24.9579 54.4493 25.0168C55.7415 28.5746 56.5204 32.2735 56.8404 36.2468C51.4404 34.0946 46.2426 38.5946 44.7004 43.9057C42.6226 51.0568 46.5448 56.9235 52.3515 57.6868C59.4871 59.2691 64.9626 50.7835 62.5626 42.9402C62.7378 42.8847 62.8893 42.7721 62.993 42.6205C63.0967 42.4689 63.1467 42.2868 63.1348 42.1035C62.736 36.5957 62.276 31.2235 60.6993 25.9768C61.9126 26.1835 61.8326 26.1946 61.9882 26.1946C62.3604 26.1946 62.6882 25.9391 62.7848 25.5724L64.6071 24.1891C65.2837 20.5191 66.0793 16.7224 67.016 13.1091C66.2082 11.7202 65.6826 10.6668 64.9115 10.8568C64.4837 10.7779 58.1071 10.2768 47.8726 9.42127C36.9137 2.30905 24.4393 5.81905 20.5037 13.3068L20.2871 13.1902C19.7704 12.9168 19.0671 13.2446 19.0726 13.9324C11.506 24.0591 11.9871 36.8657 15.146 49.4313ZM56.9582 55.4346C52.0548 57.1902 46.5193 53.9291 46.5193 46.7824C46.5193 41.5857 49.8748 37.3568 53.9971 37.3568C58.1193 37.3568 61.4737 41.5857 61.4737 46.7824C61.4737 50.6546 59.6115 53.9857 56.9582 55.4346ZM61.3171 40.1646C60.5848 38.9757 59.6637 37.9724 58.6048 37.2179C58.356 32.9857 57.6082 29.0691 56.3271 25.3002C57.1937 25.4291 58.0337 25.5546 58.8615 25.6824C60.3848 30.4146 60.9204 35.1424 61.3171 40.1646ZM64.0171 12.4379C64.0126 12.4546 64.006 12.4746 64.0026 12.4913C62.7526 16.8713 61.8993 20.6568 61.3204 24.3679L61.3148 24.3946C58.4537 23.8924 54.6615 23.4157 52.0693 22.9235C51.8693 22.8842 51.6618 22.9214 51.4879 23.0278C51.314 23.1342 51.1864 23.302 51.1304 23.4979L49.3026 26.3402C48.5871 25.1438 48.0171 23.8662 47.6048 22.5346C47.5004 22.1991 46.9182 21.7402 46.5715 21.7124C45.6404 21.6346 43.8937 21.5079 42.6204 21.4213C43.2137 17.6302 43.6504 14.6502 44.2537 10.7924C48.7871 11.1868 58.5293 11.9646 64.0171 12.4379ZM19.6804 49.8913C20.7337 49.8913 21.8204 50.1613 21.9804 50.1757C24.1304 51.4457 25.6382 53.8768 25.7415 56.3657C25.8826 59.7346 23.466 60.9479 20.6715 59.6257C18.1493 58.4313 16.486 55.5435 16.7182 52.7624C16.8771 50.8402 17.8237 49.8913 19.6804 49.8913ZM22.486 48.5757C21.959 47.4466 21.4899 46.2914 21.0804 45.1146C29.2848 46.2846 34.7293 56.4457 28.0582 61.5213C27.1898 61.5104 26.3358 61.299 25.5626 60.9035C28.7726 58.4802 27.8337 51.4091 22.486 48.5757ZM31.1604 60.7646C35.7693 53.8424 29.376 44.2013 20.7493 43.3991C29.7404 34.5024 41.8126 55.2479 31.1604 60.7646ZM20.5315 48.2702C19.5393 48.1768 18.5782 48.2257 17.7204 48.5557C15.1648 37.0968 13.0137 25.0113 20.2982 15.0879L21.0826 15.5079C16.1148 25.5968 15.9204 37.6935 20.5315 48.2702Z" fill="white"/>
<path d="M58.8199 17.0467C58.8199 16.5867 58.401 16.2134 57.941 16.2134C57.481 16.2134 57.1076 16.5867 57.1076 17.0467C57.1076 17.5845 57.5354 17.8712 57.9632 17.88C58.3921 17.89 58.8199 17.6212 58.8199 17.0467ZM53.2654 17.0467C53.2654 16.5867 52.8454 16.2134 52.3854 16.2134C51.9254 16.2134 51.5521 16.5867 51.5521 17.0467C51.5521 17.6134 52.0287 17.9023 52.4787 17.88C52.8821 17.86 53.2654 17.59 53.2654 17.0467ZM47.4321 17.0467C47.4321 16.5867 47.0121 16.2134 46.5521 16.2134C46.0921 16.2134 45.7188 16.5867 45.7188 17.0467C45.7188 17.6112 46.191 17.9 46.6399 17.88C47.0454 17.8623 47.4321 17.5912 47.4321 17.0467Z" fill="white"/>
</svg>
