<svg width="80" height="80" viewBox="0 0 80 80" fill="none" xmlns="http://www.w3.org/2000/svg">
<path d="M75.6929 37.0771C75.5391 36.9232 70.1544 29.0771 70.1544 29.2309L66.4621 24.0002L65.5391 22.7694C65.3852 22.6155 65.0775 22.154 64.9237 22.0002C64.3083 21.3848 63.6929 21.0771 62.7698 20.9232C62.4621 20.7694 61.8468 20.7694 61.6929 20.7694H48.0006C47.5391 20.7694 47.2314 20.9232 46.7698 21.0771C45.2314 21.6925 44.1544 23.2309 44.1544 24.9232V28.154C44.3083 35.3848 44.3083 39.2309 44.4621 48.6155L40.3083 48.4617C41.3852 47.6925 42.1544 46.6155 42.3083 45.2309C42.3083 44.3078 42.3083 43.8463 42.4621 43.0771L42.616 38.9232L42.7698 30.6155L42.9237 22.3078V18.0002C42.7698 16.154 41.3852 14.3078 39.5391 13.6925C39.0775 13.5386 38.616 13.3848 38.1544 13.3848H8.92368C6.30829 13.5386 4.46214 15.5386 4.15445 18.0002V24.4617L4.30829 32.7694L4.46214 41.0771C4.46214 41.2309 4.61599 44.4617 4.61599 44.154V45.2309C4.76983 45.8463 4.92368 46.6155 5.38522 47.0771H4.92368C4.15445 47.0771 3.53906 47.6925 3.53906 48.4617V57.8463C3.69291 58.4617 3.84675 59.0771 4.15445 59.6925C4.76983 60.7694 6.0006 61.5386 7.23137 61.6925H14.1544C14.616 63.2309 15.3852 64.6155 16.616 65.5386C18.1544 66.7694 20.1544 67.3848 22.0006 66.9232C18.7698 66.3078 16.616 63.6925 16.4621 61.0771C16.616 60.7694 16.7698 60.4617 16.7698 60.154C16.7698 58.7694 17.3852 57.3848 18.3083 56.4617C18.4621 56.3078 18.616 56.154 18.9237 56.0002C19.8468 55.3848 20.9237 54.9232 22.1544 54.9232C24.7698 54.7694 27.3852 57.0771 27.6929 59.8463V60.154C27.8468 63.0771 25.6929 66.3078 22.1544 66.9232C24.0006 67.2309 26.0006 66.7694 27.5391 65.5386C28.7698 64.4617 29.6929 63.0771 30.0006 61.3848L45.3852 60.9232C45.5391 61.0771 45.6929 61.0771 45.8468 61.0771C48.1544 61.0771 50.616 60.9232 52.9237 60.7694C53.2314 62.6155 54.1544 64.4617 55.5391 65.5386C57.0775 66.7694 59.0775 67.3848 60.9237 66.9232C57.2314 66.3078 55.0775 63.0771 55.3852 60.154C55.5391 57.2309 58.1544 54.7694 60.9237 54.9232C63.6929 54.7694 66.3083 57.2309 66.4621 60.154C66.7698 63.0771 64.4621 66.3078 60.9237 66.9232C62.7698 67.2309 64.7698 66.7694 66.3083 65.5386C67.6929 64.4617 68.616 62.6155 68.9237 60.7694L70.9237 60.9232C71.3852 60.9232 72.0006 61.0771 72.616 60.9232C74.9237 60.6155 76.616 58.6155 76.7698 56.3078V54.0001C76.7698 53.8463 77.0775 39.5386 77.0775 40.3078C77.0775 40.0002 77.0775 39.5386 76.9237 39.2309C76.4621 38.154 76.0006 37.3848 75.6929 37.0771ZM26.0006 18.4617C25.8468 19.2309 25.8468 20.0002 25.8468 20.9232H20.7698C20.7698 20.154 20.616 19.3848 20.616 18.4617C20.616 17.6925 20.4621 16.9232 20.3083 16.154H26.1544C26.1544 16.9232 26.1544 17.6925 26.0006 18.4617ZM6.15445 44.9232V40.7694L6.30829 32.4617L6.46214 24.154V18.0002C6.46214 17.5386 6.61599 17.2309 6.92368 16.7694C7.23137 16.4617 7.53906 16.154 8.0006 16.0002C8.46214 15.8463 8.76983 15.8463 9.53906 15.8463H18.3083C18.1544 16.6155 18.1544 17.3848 18.0006 18.154C17.8468 19.3848 17.8468 20.7694 17.6929 22.0002C17.6929 22.7694 18.3083 23.3848 18.9237 23.3848H19.0775C21.6929 23.5386 24.3083 23.5386 26.7698 23.3848H26.9237C27.6929 23.3848 28.3083 22.6155 28.1544 22.0002C28.0006 20.7694 28.0006 19.3848 27.8468 18.154C27.8468 17.3848 27.6929 16.6155 27.5391 15.8463H37.2314C37.3852 15.8463 37.6929 15.8463 37.8468 16.0002C38.616 16.3078 39.3852 17.0771 39.3852 17.8463V21.8463L39.5391 30.154L39.6929 38.4617L39.8468 42.6155V44.6155C39.6929 45.8463 38.9237 46.7694 38.0006 47.2309C38.3083 47.6925 37.6929 47.6925 36.9237 47.6925L33.0775 47.8463L25.5391 47.5386L7.53906 47.0771C6.76983 46.6155 6.30829 45.6925 6.15445 44.9232ZM8.61599 58.4617H7.53906C6.92368 58.3078 6.30829 57.8463 6.15445 57.2309V49.8463C12.3083 49.6925 18.4621 49.5386 24.7698 49.3848L36.4621 48.9232H36.9237C37.5391 48.9232 38.3083 49.0771 39.0775 48.7694L44.4621 48.4617C44.616 52.154 44.616 55.6925 44.7698 59.3848C39.8468 59.0771 34.9237 58.9232 29.8468 58.9232C29.6929 57.2309 28.9237 55.5386 27.6929 54.3078C26.1544 52.7694 24.0006 51.8463 21.8468 51.8463C20.0006 51.8463 18.3083 52.4617 16.9237 53.5386C16.616 53.8463 16.3083 54.0002 16.0006 54.3078C14.7698 55.3848 14.0006 56.9232 13.6929 58.4617H9.84676H8.61599ZM73.2314 58.7694C72.9237 59.0771 72.4621 59.2309 72.0006 59.2309C71.5391 59.3848 71.0775 59.3848 70.4621 59.3848L68.4621 59.5386C68.4621 57.6925 67.6929 55.6925 66.3083 54.3078C64.7698 52.7694 62.616 51.8463 60.4621 51.8463C58.3083 51.8463 56.1544 52.7694 54.616 54.3078C53.2314 55.6925 52.4621 57.6925 52.4621 59.5386C50.4621 59.3848 48.3083 59.3848 46.3083 59.2309C46.7698 42.6155 46.7698 34.3078 46.9237 28.0002V24.9232C46.9237 24.4617 47.2314 24.0002 47.8468 23.6925C48.1544 23.5386 48.1544 23.5386 48.7698 23.5386H62.1545C62.3083 23.5386 62.4621 23.5386 62.4621 23.6925C62.616 23.6925 62.616 23.8463 62.7698 23.8463C62.9237 24.0002 62.9237 24.0002 63.0775 24.3078L64.0006 25.5386L67.8468 30.7694C68.0006 30.9232 73.8468 38.9232 73.5391 38.4617C74.1544 39.3848 74.1544 39.3848 74.1544 40.6155L74.4621 53.3848V55.6925C74.616 57.0771 74.0006 58.154 73.2314 58.7694Z" fill="white"/>
<path d="M52.463 38.0002C52.3092 38.0002 52.3092 38.0002 52.463 38.0002C52.3092 37.3848 52.3092 36.3079 52.0015 34.3079C51.6938 32.0002 51.3861 29.5386 50.9246 27.231C50.3092 29.5386 50.0015 32.0002 49.8477 34.3079C49.6938 36.3079 49.54 37.6925 49.54 38.0002V38.3079C49.54 39.231 50.1553 40.154 50.9246 40.6156C51.2323 40.7694 51.54 40.9233 51.8477 40.9233C52.1553 40.9233 52.463 40.9233 52.6169 41.0771C53.2323 41.0771 56.0015 41.231 60.6169 40.7694C62.9246 40.6156 65.3861 40.154 67.6938 39.5386C65.3861 38.9233 62.9246 38.4617 60.6169 38.3079C55.8477 37.8463 53.0784 38.0002 52.463 38.0002ZM52.3092 38.154C52.3092 38.0002 52.3092 38.0002 52.3092 38.154V38.154ZM61.54 58.7694C60.9246 58.3079 60.1553 58.3079 59.54 58.7694C59.2323 59.0771 58.9246 59.3848 58.6169 60.0002C58.9246 60.6156 59.2323 60.9233 59.54 61.231C60.1553 61.6925 60.9246 61.6925 61.54 61.231C61.8477 60.9233 62.1553 60.6156 62.463 60.0002C62.1553 59.3848 61.8477 59.0771 61.54 58.7694ZM22.7707 58.7694C22.1553 58.3079 21.3861 58.3079 20.7707 58.7694C20.463 59.0771 20.1553 59.3848 19.8477 60.0002C20.1553 60.6156 20.463 60.9233 20.7707 61.231C21.3861 61.6925 22.1553 61.6925 22.7707 61.231C23.0784 60.9233 23.3861 60.6156 23.6938 60.0002C23.54 59.3848 23.2323 59.0771 22.7707 58.7694Z" fill="white"/>
</svg>
