<svg width="50" height="50" viewBox="0 0 50 50" fill="none" xmlns="http://www.w3.org/2000/svg">
<path d="M37.5 5H12.5C8.3745 5 5 8.3745 5 12.5V37.4995C5 41.6245 8.3745 45 12.5 45H37.5C41.625 45 45 41.6245 45 37.4995V12.5C45 8.3745 41.625 5 37.5 5ZM25 34.9995C19.4775 34.9995 14.9995 30.5225 14.9995 24.9995C14.9995 19.4765 19.4775 14.999 25 14.999C30.523 14.999 35.0005 19.4765 35.0005 24.9995C35.0005 30.5225 30.523 34.9995 25 34.9995ZM35.9375 16.2495C35.6474 16.2539 35.3594 16.2005 35.0901 16.0925C34.8208 15.9845 34.5757 15.824 34.3691 15.6204C34.1624 15.4168 33.9983 15.1741 33.8863 14.9065C33.7743 14.6388 33.7166 14.3516 33.7167 14.0615C33.7167 13.7714 33.7744 13.4842 33.8865 13.2166C33.9986 12.949 34.1627 12.7063 34.3694 12.5028C34.5761 12.2992 34.8213 12.1388 35.0906 12.0308C35.3599 11.9229 35.6479 11.8696 35.938 11.874C36.5125 11.8827 37.0605 12.1171 37.4636 12.5265C37.8668 12.9359 38.0927 13.4874 38.0927 14.062C38.0926 14.6366 37.8665 15.188 37.4633 15.5973C37.0601 16.0066 36.512 16.2409 35.9375 16.2495Z" stroke="white" stroke-miterlimit="10" stroke-linecap="round" stroke-linejoin="round"/>
</svg>
