<svg width="80" height="80" viewBox="0 0 80 80" fill="none" xmlns="http://www.w3.org/2000/svg">
<path d="M3.76431 63.5296C2.58784 64.8237 1.41137 66.2355 2.70549 67.5296C3.52901 70.1178 8.70549 70.8237 21.9996 73.7649C23.9996 74.2355 25.9996 74.5884 27.9996 74.2355C32.3525 73.4119 34.8231 69.059 36.8231 65.059C39.0584 66.9414 42.4702 66.7061 44.9408 65.1767C47.4114 63.6472 49.1761 61.1766 50.8231 58.8237C55.529 52.2355 60.2349 46.2355 66.7055 37.8825C67.4114 38.8237 68.7055 39.059 69.882 38.8237C72.7055 38.1178 77.529 33.1766 77.882 27.5296C77.882 27.1766 77.882 26.7061 77.7643 26.3531C77.6467 26.0002 77.2937 25.6472 76.9408 25.6472C77.529 24.3531 77.7643 22.8237 77.6467 21.2943C78.7055 16.0002 75.7643 12.2355 72.2349 11.5296C71.882 11.059 71.4114 10.7061 70.8231 10.4708C57.882 6.58841 48.4702 6.23547 45.7643 5.88253C43.529 5.52959 41.9996 5.2943 40.5878 6.47077C32.4702 13.1766 27.9996 19.6472 21.6467 27.7649C17.9996 32.3531 11.2937 41.8825 10.1173 47.6472C9.52902 50.2355 9.88196 52.8237 10.9408 54.8237L11.0584 54.9414C5.52901 61.2943 4.70549 62.4708 3.76431 63.5296ZM74.8231 27.2943C74.8231 31.4119 71.4114 37.2943 68.1173 35.7649C69.882 33.5296 73.4114 29.4119 74.8231 27.2943ZM62.5878 39.5296C57.4114 45.6472 51.9996 52.0002 47.4114 58.7061C48.3525 53.8825 47.6467 53.5296 51.529 48.0002C56.9408 40.3531 64.2349 30.3531 72.2349 20.9414C72.8231 20.2355 73.529 19.6472 74.2349 19.2943C74.8231 19.059 75.7643 20.3531 75.882 21.059C75.0584 24.7061 72.9408 27.2943 62.5878 39.5296ZM72.1172 14.4708C72.3525 14.2355 72.4702 13.8825 72.5878 13.5296C74.2349 14.1178 75.7643 15.8825 75.9996 18.2355C75.1761 17.5296 74.2349 17.5296 73.529 17.7649C72.5878 18.2355 71.6467 18.9414 70.8231 19.8825C62.8231 29.4119 55.529 39.4119 50.1172 47.059C48.9408 48.8237 47.529 50.7061 46.8231 52.9414C45.7643 56.0002 46.2349 60.3531 43.9996 62.7061C42.1173 63.6472 39.7643 63.2943 37.4114 62.7061L38.3525 61.4119C39.2937 61.7649 40.2349 61.6472 40.9408 61.1766C43.9996 59.4119 43.1761 53.8825 47.0584 48.0002C54.8231 36.1178 63.0584 25.5296 72.1172 14.4708ZM67.1761 11.2943C55.882 24.9414 56.8231 25.059 55.9996 24.9414C49.4114 23.8825 43.0584 22.3531 36.4702 21.1766C35.9996 21.059 35.882 20.5884 36.1173 20.2355L36.4702 19.7649C46.8231 7.29429 45.7643 9.41194 47.1761 7.88253C53.7643 8.35312 60.3525 9.41194 67.1761 11.2943ZM11.882 48.0002C12.9408 42.5884 19.6467 33.2943 23.0584 28.8237C29.4114 20.7061 33.7643 14.3531 41.7643 7.76488C41.9996 7.64724 42.2349 7.41194 42.5878 7.41194C43.2937 7.2943 44.1173 7.41194 44.9408 7.52959C41.882 10.4708 37.4114 15.8825 34.8231 19.1766C33.6467 20.5884 34.4702 22.7061 36.2349 22.9414C42.8231 24.1178 49.1761 25.5296 55.7643 26.7061H56.1173C56.8231 26.7061 57.529 26.3531 57.9996 25.7649C60.8231 21.8825 66.2349 15.1766 69.0584 11.8825L70.4702 12.2355C70.9408 12.3531 71.1761 12.9414 70.8231 13.4119C61.7643 24.5884 53.529 35.1766 45.7643 47.059C41.6467 53.2943 42.2349 59.7649 39.6467 59.8825L39.882 59.5296C40.4702 59.059 40.3525 58.1178 39.529 58.0002C31.6467 56.0002 22.8231 53.6472 14.7055 51.6472C14.3525 51.5296 13.882 51.7649 13.7643 52.1178C13.529 52.2355 13.9996 51.8825 12.4702 53.5296C11.6467 51.8825 11.529 50.0002 11.882 48.0002ZM14.7055 53.4119C20.8231 54.9414 27.1761 56.5884 33.529 58.2355C31.2937 61.4119 28.2349 65.1767 25.2937 68.7061C24.8231 69.2943 25.1761 70.1178 25.9996 70.1178C26.2349 70.1178 26.4702 70.0002 26.7055 69.7649C29.882 66.0002 33.0584 61.8825 35.4114 58.5884C36.2349 58.8237 37.0584 59.059 37.882 59.1766L29.882 70.0002C28.7055 71.5296 28.3525 71.6472 26.5878 71.4119C18.1173 70.1178 12.7055 68.5884 9.76431 67.8825C4.58784 66.7061 4.2349 66.2355 4.11725 66.1178C4.11725 65.6472 5.29372 64.4708 5.76431 64.0002C8.47019 60.5884 11.529 56.9414 14.7055 53.4119Z" fill="white"/>
<path d="M28.8222 29.7648C31.1752 30.3531 31.7634 30.5884 32.7046 30.5884C34.9399 30.5884 35.9987 28.5884 35.2928 27.1766C34.8222 26.4707 34.1164 26.1178 33.4105 25.8825C33.2928 25.8825 33.0575 25.7648 32.9399 25.7648C31.2928 25.2942 28.7046 24.4707 27.4105 26.3531C26.234 27.8825 27.0575 29.4119 28.8222 29.7648ZM28.7046 27.2942C29.2928 26.3531 31.7634 27.2942 32.8222 27.6472C32.9399 27.6472 33.5281 27.8825 33.6458 28.0001C33.7634 28.2354 33.5281 28.8236 32.5869 28.8236C31.9987 28.8236 31.5281 28.706 29.1752 28.1178C28.8222 28.0001 28.5869 27.8825 28.5869 27.7648C28.5869 27.6472 28.5869 27.5295 28.7046 27.2942ZM37.8811 31.8825C40.234 32.4707 40.8222 32.706 41.7634 32.706C43.9987 32.706 45.0575 30.706 44.3516 29.2942C43.8811 28.3531 42.8222 28.2354 41.9987 27.8825C40.3516 27.4119 37.7634 26.5884 36.4693 28.4707C36.1164 28.9413 35.9987 29.5295 35.9987 30.0001C35.9987 30.8236 36.7046 31.5295 37.8811 31.8825ZM37.8811 29.4119C38.4693 28.5884 40.4693 29.2942 41.5281 29.5295C41.9987 29.6472 42.7046 29.8825 42.9399 30.1178C43.0575 30.3531 42.8222 30.9413 41.8811 30.9413C41.4105 30.9413 40.9399 30.8236 40.4693 30.706C39.2928 30.3531 37.8811 30.2354 37.8811 29.7648C37.6458 29.7648 37.6458 29.6472 37.8811 29.4119ZM47.5281 33.8825C49.7634 34.4707 50.5869 34.706 51.4105 34.706C53.7634 34.706 54.8222 32.706 53.9987 31.2942C53.5281 30.3531 52.4693 30.2354 51.6458 29.8825C49.9987 29.4119 47.4105 28.5884 46.1164 30.4707C45.7634 30.9413 45.6458 31.5295 45.6458 32.0001C45.7634 32.8236 46.4693 33.5295 47.5281 33.8825ZM47.5281 31.4119C48.1164 30.5884 50.1163 31.2942 51.1752 31.5295C51.6458 31.6472 52.3516 31.8825 52.5869 32.1178C52.7046 32.3531 52.4693 32.9413 51.5281 32.9413C50.7046 32.9413 50.234 32.706 48.1164 32.2354C47.7634 32.1178 47.5281 32.0001 47.5281 31.8825C47.4105 31.6472 47.4105 31.5295 47.5281 31.4119ZM23.4105 36.9413C25.7634 37.4119 26.4693 37.6472 27.2928 37.6472C29.5281 37.5295 30.5869 35.5295 29.7634 34.2354C29.2928 33.2942 28.3516 33.1766 27.4105 32.8236C25.7634 32.3531 23.0575 31.5295 21.8811 33.5295C21.5281 34.0001 21.4105 34.5884 21.4105 35.0589C21.5281 36.0001 22.234 36.706 23.4105 36.9413ZM23.2928 34.5884C23.8811 33.6472 26.3516 34.5884 27.4105 34.8236C27.6458 34.8236 28.1164 35.0589 28.234 35.1766C28.3516 35.4119 28.1164 36.0001 27.1752 36.0001C26.7046 36.0001 26.1164 35.8825 23.7634 35.2942C23.4105 35.1766 23.1752 35.0589 23.1752 34.9413C23.1752 34.8236 23.1752 34.706 23.2928 34.5884ZM38.5869 38.8236C39.2928 38.1178 39.4105 37.0589 38.9399 36.2354C38.4693 35.2942 37.4105 35.1766 36.5869 34.8236C34.9399 34.3531 32.234 33.5295 31.0575 35.5295C30.1163 37.0589 30.8222 38.5884 32.5869 38.9413C34.7046 39.4119 37.0575 40.3531 38.5869 38.8236ZM32.3516 36.8236C32.3516 36.8236 32.3516 36.706 32.4693 36.4707C33.0575 35.5295 35.5281 36.4707 36.5869 36.706C36.7046 36.706 37.2928 36.9413 37.4105 37.0589C37.5281 37.2942 37.2928 37.8825 36.3516 37.8825C35.8811 37.8825 35.4105 37.7648 34.9399 37.6472C33.7634 37.2942 32.3516 37.1766 32.3516 36.8236ZM40.7046 37.2942C39.7634 38.8237 40.4693 40.3531 42.234 40.706C44.234 41.1766 45.2928 41.4119 46.1164 41.4119C48.3516 41.2942 49.4105 39.2942 48.5869 38.0001C48.1163 37.0589 47.0575 36.9413 46.234 36.5884C44.7046 36.2354 41.9987 35.4119 40.7046 37.2942ZM47.1752 38.9413C47.1752 39.0589 47.1752 39.2942 47.0575 39.4119C46.5869 40.0001 45.4105 39.6472 44.7046 39.5295C42.7046 38.9413 41.6458 39.0589 42.234 38.3531C42.8222 37.5295 44.7046 38.1178 45.8811 38.4707C46.3516 38.4707 47.0575 38.5884 47.1752 38.9413ZM18.234 44.3531C20.3516 44.8237 21.1752 45.0589 21.9987 45.0589C24.3516 45.0589 25.4105 43.0589 24.5869 41.6472C24.1164 40.706 23.1752 40.5884 22.234 40.2354C20.5869 39.7648 17.8811 38.9413 16.7046 40.9413C15.6458 42.4707 16.4693 44.0001 18.234 44.3531ZM18.1164 41.8825C18.7046 41.0589 20.5869 41.6472 21.7634 42.0001C22.234 42.1178 22.9399 42.2354 23.1752 42.5884C23.2928 42.8237 23.0575 43.4119 22.1164 43.4119C21.6458 43.4119 21.0575 43.2942 18.7046 42.706C18.3516 42.5884 18.1164 42.4707 18.1164 42.3531C17.9987 42.2354 17.9987 42.1178 18.1164 41.8825ZM31.2928 42.2354C29.6458 41.7648 26.9399 40.9413 25.7634 42.9413C24.8222 44.4707 25.5281 46.0001 27.2928 46.3531C29.6458 46.8237 30.3516 47.0589 31.1752 47.0589C33.4105 46.9413 34.4693 44.9413 33.6458 43.6472C33.1752 42.706 32.234 42.4707 31.2928 42.2354ZM31.1752 45.2942C30.7046 45.2942 30.234 45.1766 29.7634 45.0589C28.5869 44.706 27.1752 44.5884 27.0575 44.2354C26.9399 43.8825 27.0575 44.1178 27.1752 43.8825C27.7634 42.9413 30.234 43.8825 31.2928 44.1178C31.5281 44.1178 31.9987 44.3531 32.1163 44.4707C32.3516 44.706 32.1164 45.1766 31.1752 45.2942ZM41.0575 44.0001C39.4105 43.5295 36.7046 42.706 35.5281 44.706C34.5869 46.2354 35.2928 47.7648 37.0575 48.1178C39.1752 48.5884 39.9987 48.8236 40.8222 48.8236C43.1752 48.8236 44.234 46.8236 43.4105 45.4119C43.0575 44.706 41.9987 44.3531 41.0575 44.0001ZM40.9399 47.0589C40.4693 47.0589 39.8811 46.9413 37.4105 46.3531C37.0575 46.2354 36.8222 46.1178 36.8222 46.0001C36.8222 46.0001 36.8222 45.8825 36.9399 45.6472C37.5281 44.706 39.9987 45.6472 41.0575 45.8825C41.2928 45.8825 41.7634 46.1178 41.8811 46.2354C42.1163 46.4707 41.7634 47.0589 40.9399 47.0589ZM47.6458 11.7648C49.1752 14.5884 50.4693 17.6472 51.5281 20.706C51.6458 21.0589 51.9987 21.2942 52.3516 21.2942C52.9399 21.2942 53.4105 20.706 53.1752 20.1178C52.1164 16.9413 50.8222 13.8825 49.1752 10.9413C48.9399 10.4707 48.3516 10.3531 47.9987 10.5884C47.6458 10.8236 47.4105 11.4119 47.6458 11.7648ZM46.3516 15.6472C46.234 15.1766 45.6458 14.9413 45.1752 15.0589C44.7046 15.1766 44.4693 15.7648 44.5869 16.2354L45.7634 19.7648C45.8811 20.1178 46.234 20.3531 46.5869 20.3531C47.1752 20.3531 47.6458 19.7648 47.4105 19.1766L46.3516 15.6472ZM56.1164 17.0589C56.5869 16.9413 56.9399 16.4707 56.8222 16.0001L56.1164 12.9413C55.9987 12.4707 55.5281 12.1178 55.0575 12.2354C54.5869 12.3531 54.234 12.8236 54.3516 13.2942L54.9399 16.3531C55.1752 16.8236 55.6458 17.0589 56.1164 17.0589Z" fill="white"/>
</svg>
