<svg width="80" height="80" viewBox="0 0 80 80" fill="none" xmlns="http://www.w3.org/2000/svg">
<path fill-rule="evenodd" clip-rule="evenodd" d="M66.499 52.3796C66.4457 52.0041 66.3196 51.8794 66.3169 51.7375C66.3097 51.3679 66.3217 50.9586 66.2703 50.6117C66.1684 49.9249 66.2231 49.5281 66.1753 48.9319C66.1542 48.6682 66.1019 48.726 66.0996 48.4394L66.0601 48.0524C66.083 47.8149 66.01 47.5775 65.9686 47.3399L65.9563 46.733C65.9272 46.4868 65.9201 46.2317 65.8991 45.9767L65.8403 40.4884C65.7201 40.0991 65.4339 40.1757 65.1049 40.1805L62.9809 40.1893C63.3295 40.8234 63.2343 41.6161 63.287 41.7725C63.3339 41.9119 63.2622 41.8842 63.2852 41.9397L63.3793 43.1007C63.4763 44.0324 62.7495 45.0529 61.8859 45.3436L61.5428 45.4754L60.8753 45.5722L60.0758 45.5986C60.0239 45.5986 59.972 45.625 59.9219 45.625C59.4609 45.625 58.843 45.6637 58.4267 45.4492C58.0421 45.2889 57.7038 45.0349 57.4425 44.7103C57.0705 44.2549 56.8915 43.6569 56.8779 43.0743L56.9659 41.7023C56.9849 41.2596 56.9919 40.586 57.1998 40.2071L55.1126 40.1455C54.9627 40.1711 54.6987 40.2338 54.6367 40.6292L54.5223 47.3753C54.5156 47.5836 54.5803 47.805 54.4713 47.9909C54.4284 48.0642 54.3761 50.0076 54.2945 50.4889C54.2302 50.8682 54.4097 51.4722 54.283 51.5884C54.1803 51.6825 54.2294 52.2767 54.2267 52.3975L65.3019 52.3887C65.7012 52.3884 66.0998 52.3884 66.499 52.3796ZM58.9596 40.2244L60.7767 40.1892C61.067 40.198 61.3555 40.1628 61.6467 40.1628L61.5815 40.5234C61.5771 40.5586 61.5947 40.6026 61.5807 40.6378C61.5569 40.6906 61.5579 40.7522 61.5491 40.805C61.5412 40.8778 61.4315 40.8554 61.4673 40.9897L61.3803 43.1357C61.3545 43.1725 61.3561 43.2305 61.2465 43.2765C61.1102 43.3338 61.1497 43.2897 61.0654 43.2677C60.8673 43.2444 59.8345 43.3522 59.7355 43.3205C59.634 43.2834 59.3256 43.3746 59.3019 43.1359H59.3001L59.2833 42.5026C59.319 42.2354 59.2967 41.5337 59.2068 41.2801L59.1927 41.069C59.1523 40.9898 59.0801 40.9106 59.103 40.8228C59.1089 40.7898 59.0708 40.8399 59.0635 40.6909C59.0585 40.5916 58.9596 40.6034 58.9596 40.2244ZM38.5772 43.5578C38.6961 43.3831 39.2958 43.1241 39.6547 42.8365C40.2193 42.3844 40.5985 42.2425 41.0734 41.9042C41.2833 41.7546 41.2401 41.7279 41.463 41.5964C41.5641 41.5348 41.6705 41.4821 41.7479 41.3941C41.7559 41.3765 41.7665 41.3677 41.7771 41.3677C42.0031 41.2621 42.1684 41.0863 42.354 40.9279L42.8782 40.6113C43.0831 40.4618 43.3003 40.3298 43.5087 40.1802C43.9401 39.8749 45.3414 39.0813 45.9099 38.773C46.0524 38.6938 46.1843 38.5972 46.3251 38.518L48.0999 37.4889C48.1319 37.4533 48.4692 37.2284 48.2468 36.882L47.0172 34.7887C46.7926 35.0535 46.7449 35.2103 46.4156 35.4132L45.7929 35.8442C45.6822 35.9629 45.6873 35.8711 45.6548 35.9234L45.026 36.3545C44.4942 36.7239 44.1811 36.9732 43.398 36.9437C42.5196 36.9108 41.7745 36.374 41.2995 35.6596L40.8755 34.9735C40.8483 34.9295 40.8043 34.9031 40.7796 34.8591C40.4755 34.3242 40.3308 34.2191 40.1788 33.4783C40.1313 33.0649 40.1788 32.6428 40.3318 32.2469C40.5347 31.7137 40.9745 31.2301 41.4673 30.9452C41.5647 30.8889 42.5956 30.3429 42.6943 30.3383C42.6945 30.3383 43.6511 29.793 44.1025 29.793L43.0814 27.9108C42.9993 27.8425 42.9257 27.7229 42.6355 27.7261C42.4726 27.7279 37.9156 30.3065 37.5614 30.5055L36.1479 31.3058C35.8798 31.502 35.7587 31.4341 35.6545 31.4905C35.5041 31.5697 35.3599 31.6575 35.2041 31.7191C35.1073 31.7543 35.0212 31.8247 34.9287 31.8775L33.4836 32.5724C33.1084 32.7073 32.7078 33.1505 32.5231 33.1089C32.3759 33.0757 31.8854 33.4161 31.7563 33.4871C32.6107 34.5071 33.2647 35.7383 33.9358 36.8821L36.6395 41.5085C37.0231 42.1631 37.5505 42.9842 37.8681 43.6194L38.1012 44.0153C38.286 43.8921 38.4505 43.7425 38.5772 43.5578ZM44.1825 32.0623L44.3583 31.9479C44.383 31.9113 44.4703 31.7369 44.5351 31.7369C44.5492 31.6753 44.5887 31.6665 44.6239 31.6489C44.7094 31.5922 44.6321 31.5145 44.9758 31.3234C45.2367 31.7729 45.6195 32.3255 45.8334 32.7394C45.9934 33.0473 46.2081 33.3111 46.3611 33.6189L46.0233 33.7421C45.9891 33.7597 45.9652 33.7949 45.9275 33.7949C45.8659 33.8037 45.8158 33.8389 45.762 33.8565C45.7063 33.8874 45.6643 33.7761 45.5651 33.8741L43.6617 34.8769C43.6057 34.8906 43.3638 34.8449 43.3908 34.6658H43.3881L43.1427 34.2524C43.0398 34.0916 42.7382 33.6884 42.6827 33.5399L42.5788 33.3463H42.578C42.4873 33.1197 42.6129 33.1012 42.6211 33.0737L43.1611 32.7394C43.4561 32.6001 43.9463 32.3284 44.1825 32.0623ZM24.4131 30.1889C24.2953 30.0333 24.3955 29.7217 24.1887 29.3005C24.1009 29.1213 24.1686 28.4756 24.1017 28.0164C23.9996 27.3153 24.0553 26.9413 24.0059 26.3364C23.9862 26.0949 23.9335 26.1245 23.9302 25.8527C23.9292 25.7295 23.9372 25.6153 23.8967 25.5009C23.892 25.4898 23.8901 25.4777 23.8915 25.4657C23.9134 25.2194 23.8422 24.9908 23.8009 24.7532L23.7878 24.1463C23.6804 23.2201 23.7243 22.4535 23.6972 21.5692C23.6884 21.2525 23.6963 20.9447 23.7103 20.6281C23.7174 20.4698 23.7007 20.3026 23.699 20.1444L23.6743 17.8751C23.5692 17.4868 23.2486 17.5605 22.9548 17.5673H20.8123C21.0769 18.2901 21.0372 18.0452 21.0963 18.8602L21.1191 19.1593C21.1644 19.2913 21.0948 19.2815 21.1164 19.3175C21.1628 19.3946 21.1876 20.3092 21.2097 20.4873C21.3225 21.3981 20.5695 22.4362 19.7171 22.7301C19.4233 22.8314 19.511 22.8501 19.0987 22.8973L18.7055 22.9589L17.2868 23.0205C16.2411 23.0205 15.3801 22.5106 14.9375 21.5341C14.6204 20.8345 14.7188 20.0949 14.7643 19.3529C14.7695 19.265 14.7625 19.177 14.7967 19.089L14.8047 18.6844C14.8185 18.4965 14.9265 17.6754 15.0326 17.5937L13.0324 17.5233C12.7172 17.5173 12.4731 17.7228 12.4686 18.0069L12.4009 22.1583L12.3543 24.7529C12.346 24.969 12.4123 25.1759 12.3025 25.3685C12.2574 25.4477 12.2094 27.3921 12.1249 27.8753C12.0593 28.2465 12.2428 28.8487 12.1143 28.9658C11.9708 29.0967 12.1391 29.9837 11.9639 30.4258L11.8566 30.6985L21.2342 30.3026C22.2174 30.262 23.4273 30.1889 24.4131 30.1889ZM16.7902 17.6026H17.2897C17.6743 17.6026 18.2508 17.5485 18.6231 17.5674C18.9081 17.585 19.1931 17.5498 19.4772 17.5498L19.3822 18.1919C19.3764 18.2413 19.2566 18.2525 19.2977 18.3765L19.2318 19.7485L19.2107 20.5225L19.1508 20.6193C18.8817 20.7508 19.0801 20.6545 18.8211 20.6545L17.9521 20.6897C17.8228 20.6809 17.6953 20.7425 17.566 20.6985C17.4551 20.6668 17.4367 20.7154 17.2969 20.6809C17.087 20.629 17.1523 20.5225 17.1324 20.5225L17.1156 19.8892C17.1287 19.7748 17.1367 19.6693 17.1271 19.5637C17.0995 19.2623 17.1607 19.0807 17.0374 18.6666L17.0251 18.4556C16.9846 18.3676 16.9116 18.2885 16.9335 18.2093C16.9415 18.1759 16.8971 18.2242 16.894 18.0687C16.8916 17.9509 16.7998 18.0405 16.7902 17.6026ZM73.0516 59.8908C73.1187 61.9153 71.5092 63.7417 69.4974 63.9455C68.6828 63.9967 67.3483 63.9658 66.5035 63.9719C65.8921 63.9807 65.2809 63.9983 64.6697 63.9983C62.9353 63.9983 61.199 64.0071 59.4663 64.0071L52.6526 64.0687L42.6188 64.1215C38.4225 64.137 35.1939 62.2479 33.1163 58.6244L27.0809 48.061L24.7985 44.0415C24.3084 43.1932 23.9737 42.5362 23.0473 41.9746C22.0147 41.3485 21.1783 41.4097 20.0947 41.3941C17.1964 41.3594 14.1899 41.3521 11.3239 41.2269L9.16298 41.1127C7.63178 41.0466 6.31082 40.2357 5.73194 38.7994C5.48618 38.1898 5.46234 37.7287 5.49706 37.102L5.69498 33.7421C5.75482 32.7796 6.10234 32.1297 6.79002 31.4993C6.93802 31.358 7.6385 31.0756 7.9097 30.998C8.12234 30.937 8.83226 30.9554 9.06634 30.9716C8.52058 31.0092 8.32826 31.1423 7.99066 31.3586C7.7841 31.4909 7.52026 31.5423 7.2729 31.9479C6.8489 32.6434 6.63562 32.9873 6.68538 33.8037C6.71178 34.2612 6.74698 34.7009 6.79626 35.1231C6.89162 35.9692 6.75834 37.2868 6.93258 37.9377C7.1745 38.8417 8.05242 39.4681 8.9713 39.4681L13.5686 39.4241C14.0793 39.4217 14.7375 39.4381 15.2318 39.3889C15.647 39.3537 16.0691 39.3449 16.5062 39.3449C16.9873 39.3449 17.4745 39.3537 17.938 39.3097C17.9838 39.3097 18.0399 39.3009 18.0875 39.3009C19.1043 39.3273 20.0532 39.2569 21.0348 39.2129C22.8863 39.1479 24.8337 40.1321 25.954 41.5876L26.5707 42.5199C27.8654 44.6572 29.0835 46.8473 30.3508 49.0021C31.0077 50.1252 31.6548 51.254 32.2919 52.3884C32.6166 52.9601 32.963 53.5317 33.2955 54.1034L35.2964 57.5601C36.7687 60.1711 39.3225 61.6959 42.3372 61.7202C44.5721 61.7383 46.9015 61.6932 49.1457 61.685H59.7116C60.6281 61.685 61.5551 61.6674 62.4593 61.6938C63.9924 61.729 65.5095 61.6674 67.0347 61.685C67.1127 61.6855 69.0643 61.7074 69.2828 61.6586L69.479 61.6146C70.2542 61.4117 70.7263 60.7141 70.7491 59.9524L70.7465 56.2759C70.7388 55.5001 70.1888 54.8244 69.3894 54.6311C69.1329 54.569 68.7649 54.5881 68.4993 54.5871C60.8771 54.5453 53.2364 54.4532 45.6155 54.4287C43.7987 54.4287 42.254 53.8445 40.9697 52.4585C40.479 51.9289 40.2452 51.5095 39.9071 50.9193L34.1716 40.8837L31.8777 36.8994C30.8119 35.0223 31.2563 35.7442 29.9305 34.0057C29.5462 33.5017 28.2756 32.6156 27.6508 32.3609C26.4271 31.8623 25.6073 31.618 24.1811 31.5693C23.1063 31.5429 21.998 31.5341 20.9163 31.4901C19.9719 31.4489 18.1035 31.5018 17.1017 31.5253C16.4055 31.5417 16.4758 31.4431 15.8396 31.4373L14.0102 31.4109C12.5073 31.4146 10.5126 31.4477 9.06634 31.1823C9.33114 31.1265 10.3502 31.1004 10.7235 31.0767C10.6886 31.0767 10.3769 31.0623 10.4358 31.0239C10.4587 31.0063 10.5457 30.9975 10.6046 30.9887C10.6662 30.9623 10.7278 30.9447 10.7911 30.9183C10.6556 30.8684 9.5961 30.8546 10.2801 30.7951C10.7718 30.7511 11.2775 30.7159 11.7894 30.6983L11.7119 30.3377C11.6729 30.4948 11.647 30.362 11.551 30.3289C11.5036 30.358 11.4854 30.6285 11.4252 30.4521C11.3079 30.1081 11.2062 29.2676 11.1166 28.8337C10.8803 27.6901 10.6321 26.0146 10.602 24.8581L10.5396 22.6945C10.4991 22.3796 10.5612 22.3348 10.5431 22.2284L10.4491 18.8773C10.4347 18.0975 10.322 17.5026 10.7323 16.7577C11.1964 15.9149 12.0399 15.3983 13.0111 15.3945L14.6444 15.3857L16.4527 15.3065C16.663 15.3241 16.8705 15.3153 17.0825 15.2977L18.7527 15.2801C18.8996 15.2801 19.0483 15.2537 19.1959 15.2537C19.6164 15.2537 20.0367 15.2537 20.4564 15.2449C21.4438 15.2263 22.3641 15.1569 23.3668 15.1569C24.7372 15.1569 26.0334 16.3938 26.0961 17.8218C26.1558 19.1807 26.0835 20.782 26.0609 22.1668C26.0556 22.413 26.0635 22.6681 26.0284 22.9233L26.0206 24.093C26.002 24.7874 25.9175 26.8401 25.7663 27.3385C25.63 27.7877 25.6319 28.2935 25.4875 28.8249L25.2324 29.8452L25.0811 30.2058C27.45 30.3471 29.5505 31.2585 31.2387 32.9236L32.1403 32.1759C32.7404 31.6421 33.6075 30.9727 34.2539 30.4697C34.8129 30.0345 35.8548 29.4137 36.4623 29.0449L37.2108 28.5876C37.4851 28.3762 37.5233 28.4321 37.6137 28.3589L39.4907 27.2068L40.4924 26.5823C41.0374 26.2588 41.6649 25.7762 42.3191 25.6852C43.4769 25.5242 44.4359 25.9922 45.0326 26.9957L46.2174 28.9658L46.7012 29.7133L47.8833 31.7012C47.9598 31.833 48.0531 31.9474 48.127 32.0794C48.7807 33.2325 49.4739 34.2874 50.1631 35.4129C50.4359 35.8663 50.6217 36.1772 50.6961 36.7674C50.8379 37.8914 50.2775 39.002 49.2993 39.582C47.9071 40.3914 42.0305 43.7164 41.0827 43.9357C40.6577 44.034 40.1835 44.2898 39.6455 44.4372C39.4342 44.4949 38.6908 44.745 38.547 44.745L41.7748 50.2773C42.5367 51.5772 43.6903 52.3828 45.3019 52.4234L46.5297 52.4322L53.4499 52.397C53.1785 50.7122 52.8164 49.2034 52.7708 47.4804L52.7092 45.3167C52.6689 44.9791 52.7305 44.9692 52.7118 44.8506L52.6167 41.4996L52.6001 40.3826C52.6809 39.0804 53.8271 38.0234 55.1675 38.0079L56.8007 37.9991C57.1078 37.9639 57.4172 37.9815 57.726 37.9727L58.6083 37.9199L60.9065 37.8935C61.0534 37.8935 61.202 37.8759 61.3499 37.8759C62.3948 37.8759 63.2438 37.8204 64.2575 37.7967C65.1228 37.7889 65.9167 37.6613 66.7211 38.0781C67.7358 38.6041 68.2631 39.5809 68.2743 40.7079L68.2295 44.7538C68.2243 45.0089 68.2313 45.2639 68.1961 45.5103L68.1891 46.6801C68.1719 47.3418 68.082 49.4737 67.9358 49.9255C67.81 50.3141 67.7959 50.8919 67.6561 51.4119L67.4142 52.3794C67.8108 52.3794 69.1361 52.3207 69.5603 52.397C71.639 52.7013 73.0207 54.3527 73.0379 56.4342L73.0516 59.8908ZM27.3209 37.5681C27.2731 37.6705 27.2535 37.6082 27.2339 37.7265C27.2185 37.8186 27.1212 37.7583 27.1195 37.8583C27.1161 38.0621 27.0415 37.9679 27.0279 38.1045C27.0166 38.2188 26.9884 38.1431 26.9814 38.2013C26.9735 38.2717 26.955 38.2893 26.9356 38.3245C27.07 38.6186 26.9913 38.8337 27.3868 39.0106C27.8521 39.2186 27.8622 39.0703 28.1414 39.125C28.3471 39.1653 28.7139 38.9463 28.874 38.782C29.1119 38.5377 29.251 38.4521 29.3991 38.0431C29.4537 37.8922 29.5055 37.9577 29.5979 37.4626C29.6276 37.3034 29.6555 37.3183 29.6595 37.0493C29.6686 36.4327 29.4761 35.857 29.071 35.3869C28.6134 34.8559 28.0249 34.6196 27.3559 34.4986C27.2734 34.4837 26.6737 34.4903 26.5257 34.5426C26.0686 34.7041 26.5212 34.473 25.9751 34.7537C25.4483 35.0245 24.9049 35.5277 24.6927 36.0818C24.5556 36.4397 24.4939 37.0477 24.6092 37.4188C24.6329 37.498 24.6233 37.5946 24.6892 37.665C24.7223 37.7012 24.6495 37.725 24.7367 37.8234C24.8116 37.9079 25.0966 38.889 26.0894 38.7997C26.3012 38.7807 26.7444 38.6869 26.8703 38.5007C26.9311 38.4109 26.8273 38.4761 26.8651 38.3071L26.8694 38.2279C26.8668 38.2279 26.8668 38.2191 26.8631 38.2103C26.9695 38.1092 26.9443 38.1431 26.8903 37.9641C26.8476 37.8221 26.7915 37.873 26.7724 37.8673C26.7025 37.8461 26.7487 37.7303 26.7259 37.7354C26.5663 37.77 26.6716 37.7874 26.5412 37.542L26.507 37.4716C26.5031 37.4498 26.5971 37.3748 26.5255 37.3748C26.5167 37.2858 26.4596 37.2418 26.4851 37.1285C26.5219 36.9649 26.5092 36.8967 26.719 36.8295C26.8204 36.797 26.8211 36.8831 26.9283 36.7855C26.9511 36.7724 27.0017 36.7469 27.0065 36.7855C27.0092 36.8031 27.0233 36.7855 27.0321 36.7943C27.0399 36.7943 27.0489 36.8031 27.054 36.8031C27.0611 36.8119 27.0708 36.8119 27.0769 36.8207C27.0847 36.8207 27.0945 36.8295 27.1023 36.8383C27.2223 36.8383 27.2759 37.0621 27.2711 37.0669C27.2148 37.1247 27.2918 37.2868 27.2843 37.2868C27.2852 37.3044 27.2614 37.2956 27.2772 37.3132C27.3019 37.3572 27.3431 37.4188 27.3124 37.4188H27.3151C27.3388 37.454 27.3247 37.4628 27.3177 37.4628L27.3209 37.5681ZM14.9318 34.9999C14.9921 34.9137 14.9985 34.9492 15.018 34.8503C15.0404 34.7369 15.1319 34.8257 15.1332 34.7185C15.1358 34.521 15.2107 34.5933 15.2247 34.4634C15.2358 34.3625 15.2655 34.4127 15.2705 34.3754C15.2793 34.2962 15.2977 34.2786 15.3171 34.2434C15.2268 34.0743 15.2313 33.8169 15.0532 33.6717C14.9049 33.5508 14.6132 33.4343 14.4235 33.4431C13.9655 33.4644 13.9201 33.3589 13.4225 33.7509C12.9647 34.1114 12.9419 34.4066 12.8367 34.5689C12.6495 34.8581 12.5702 35.4487 12.5983 35.7914C12.6396 36.2933 12.85 36.7983 13.1815 37.181C13.6417 37.7125 14.0137 37.8463 14.6495 38.0165C14.9387 38.094 15.4499 38.1079 15.727 38.0253C16.154 37.8981 15.7979 38.0721 16.2775 37.8231C17.2331 37.3271 17.8011 36.4708 17.6839 35.3868C17.6695 35.2533 17.6351 35.0145 17.5635 34.9117C17.5332 34.8684 17.5964 34.8365 17.5177 34.7447C17.4217 34.6325 17.195 33.8503 16.4166 33.7772C16.0374 33.7415 15.8814 33.8093 15.5502 33.9444C15.2539 34.0652 15.4297 34.122 15.3884 34.2698V34.3578C15.2782 34.4652 15.3182 34.4503 15.362 34.6129C15.4215 34.8335 15.5015 34.5681 15.5255 34.8327C15.6631 34.8327 15.5585 34.702 15.7446 35.1053C15.7622 35.1053 15.6628 35.1933 15.7129 35.1933C15.7521 35.1933 15.9015 35.7709 15.4279 35.7386C15.3798 35.7354 15.25 35.8338 15.2459 35.7914C15.2433 35.765 15.2291 35.7826 15.2203 35.7738L15.1235 35.721C15.0243 35.721 14.9806 35.5103 14.9809 35.51C15.0423 35.4477 14.9511 35.3457 14.9748 35.2549C14.9199 35.1695 14.9238 35.0529 14.9318 34.9999ZM39.1753 56.0649C39.2372 55.9764 39.2396 56.0151 39.2606 55.9153C39.2846 55.8009 39.3713 55.8924 39.3767 55.7833C39.3875 55.5671 39.4523 55.6677 39.4665 55.5282C39.4761 55.4329 39.5097 55.4748 39.5131 55.4402C39.5209 55.361 39.5395 55.3434 39.5588 55.3084C39.4747 55.1397 39.47 54.8769 39.2967 54.7367C38.9513 54.4572 38.6385 54.5292 38.3548 54.5081C37.9863 54.4807 37.51 54.9044 37.2959 55.2029L36.9556 55.9154C36.742 56.6151 36.8084 57.2594 37.187 57.9031C37.6153 58.6314 38.1191 58.875 38.8932 59.0817C39.1836 59.1593 39.6915 59.1733 39.9707 59.0905C40.4039 58.962 40.0367 59.1381 40.5204 58.8882C41.4758 58.3945 42.0447 57.5353 41.9276 56.4519C41.9147 56.3316 41.8745 56.0623 41.8054 55.977C41.7707 55.9341 41.8523 55.9434 41.7596 55.8186C41.7263 55.7737 41.443 55.0684 40.9671 54.9127C40.2753 54.6863 39.5939 55.0415 39.6108 55.1853C39.6215 55.2753 39.6615 55.1188 39.6223 55.3612C39.6179 55.3964 39.6223 55.4052 39.6267 55.4052C39.6284 55.414 39.6294 55.414 39.6311 55.4228C39.5214 55.5274 39.5609 55.5149 39.6047 55.6778C39.6644 55.8994 39.7465 55.6309 39.7683 55.8977C39.8727 55.8977 39.8382 55.8076 39.9161 56.0121C39.9359 56.0642 40.0097 56.1477 39.9759 56.1967C39.9047 56.2999 39.9625 56.2351 39.9689 56.2671C39.9881 56.3634 40.0295 56.3892 40.0094 56.5046C39.9815 56.6381 39.9783 56.7087 39.8564 56.7772C39.6603 56.8468 39.7987 56.7922 39.6348 56.8124C39.6036 56.8124 39.4939 56.8985 39.4897 56.8564C39.4871 56.83 39.4731 56.8476 39.4643 56.8388L39.3675 56.786C39.2708 56.786 39.2215 56.5769 39.2231 56.5749C39.2851 56.5036 39.1948 56.4121 39.2188 56.3199C39.1638 56.2325 39.1663 56.1185 39.1753 56.0649ZM74.1185 29.2037C74.6617 29.6345 74.639 30.5079 74.0596 30.8924L73.8028 31.0946L72.2161 32.326L71.3039 32.8273L71.0446 32.9945C70.8584 33.0877 70.4651 33.2516 70.2715 33.2671C70.162 33.2759 70.212 33.2169 69.9398 33.2495L69.5467 33.2143C69.0595 33.1433 69.0769 32.9329 68.814 32.8185C68.8227 32.6762 68.7803 32.6426 68.8115 32.6426C68.8283 32.625 68.8334 32.6074 68.8203 32.5546C68.7808 32.4188 68.9084 32.4713 68.8871 32.2292C68.8763 32.1061 69.038 32.1322 69.1203 31.9653C69.2119 31.7789 69.4574 31.6741 69.4606 31.5959C69.4657 31.4743 69.5478 31.529 69.5599 31.4289C69.5599 31.4289 69.5617 31.4201 69.5643 31.4201C69.6302 31.4025 69.6417 31.3057 69.6707 31.2441C69.6883 31.2001 69.7296 31.1913 69.7577 31.1737L69.9319 30.9801L71.4895 29.8983C71.475 29.8756 71.4576 29.8549 71.4377 29.8367C71.194 29.9375 70.6756 30.0185 70.3716 30.1093C69.8025 30.2794 69.0617 30.4223 68.4735 30.5404C67.7955 30.6764 66.2713 30.6393 65.9985 30.69C65.7412 30.7377 65.7511 30.6629 65.6705 30.69L64.6959 30.734C62.8502 30.7863 62.5487 30.8084 60.6659 30.5141L58.1337 29.9161C57.9598 29.8225 57.4899 29.7154 57.1539 29.5642L56.1916 29.1596C54.5225 28.2807 53.847 27.9826 52.4271 26.7849C51.7446 26.209 51.3979 25.8386 50.8167 25.1841L50.1958 24.3749C49.8668 23.9604 49.7244 23.6735 49.4473 23.2668C49.1039 22.7629 48.2124 21.0881 48.1571 20.593C48.1359 20.3994 48.0692 20.2236 48.0059 20.0477L47.8001 19.1946C47.6265 18.2946 47.7783 18.5549 47.8335 18.2007C47.8443 18.1317 47.911 18.1065 47.911 17.9193C47.9761 17.9633 48.0254 18.0161 48.115 18.0161C48.1766 18.0161 48.155 18.1292 48.3015 18.1569C48.4689 18.1884 48.4814 18.43 48.8249 18.5967C48.9207 18.6433 49.0817 18.9247 49.1275 19.0189C49.2659 19.3037 49.4835 19.4253 49.6886 19.7929L50.0377 20.3381C50.151 20.4732 50.1862 20.4349 50.2779 20.5932C50.391 20.7884 50.4396 20.794 50.4484 20.813C50.5161 20.9713 50.6614 21.0857 50.7791 21.2001C50.8513 21.2705 50.8847 21.3585 50.9391 21.4375C51.2129 21.8388 51.5551 22.2053 51.8635 22.6601C52.2766 23.2265 52.7489 23.7461 53.2329 24.2521C53.7558 24.7805 54.1003 25.0308 54.6225 25.4746L56.5214 26.7148C56.6499 26.7852 56.7887 26.838 56.9057 26.9258C57.1492 27.1161 58.0441 27.4479 58.379 27.5591L60.8945 28.377L61.8822 28.5793C63.2622 28.8671 65.8791 28.8081 67.4655 28.8783C67.6647 28.8908 67.6785 28.8018 67.9027 28.9311L68.3327 28.9839C68.4057 28.9927 68.4814 28.9839 68.5561 28.9839L69.6881 29.1071C69.9809 29.1682 70.3809 28.99 70.4655 29.1159C70.5043 29.1735 70.6783 29.1737 70.7839 29.1863L69.8393 28.2892C69.7385 28.2417 69.8185 28.1396 69.7883 28.1396C69.7593 28.1044 69.7249 28.078 69.7073 28.0252C69.7072 28.0249 69.4535 27.7801 69.403 27.6117C69.3707 27.5037 69.131 27.5325 69.1884 27.4183C69.2147 27.3661 69.1852 27.3497 69.1348 27.2775C68.9611 27.0881 68.9862 27.2781 69.0073 26.9257C69.0126 26.8383 69.1715 26.8946 69.1743 26.8641C69.1803 26.8029 69.2463 26.7997 69.2782 26.7585C69.3169 26.7081 69.2396 26.6823 69.3345 26.6353C69.4142 26.5957 70.4707 26.7541 70.6697 26.8025C70.9454 26.8693 71.4175 27.2708 71.4683 27.2773C71.5622 27.2895 71.5222 27.3545 71.5598 27.3565L72.0391 27.682C72.4326 27.9188 72.8792 28.3098 73.2406 28.5967L73.7199 28.9045C73.8263 28.9682 73.7548 28.969 73.8958 29.0364L74.1185 29.2037ZM50.7948 57.6129C50.8537 57.5221 50.8571 57.5732 50.8801 57.4633C50.9035 57.3519 50.9935 57.4362 50.9963 57.3314C51.0017 57.1217 51.0718 57.2236 51.0868 57.0852C51.0993 56.9706 51.1273 57.0468 51.1326 56.9884C51.1414 56.9092 51.1598 56.8916 51.1791 56.8564C50.9871 56.3061 51.0494 56.314 50.5564 56.1089C50.3937 56.041 50.2388 56.0757 49.9732 56.0561C49.6099 56.029 49.1294 56.4538 48.9159 56.7597C48.7945 56.9337 48.7076 57.1725 48.6996 57.182C48.5694 57.3362 48.4575 57.918 48.4542 58.1407C48.4353 59.3977 49.2817 60.374 50.5123 60.6386C51.2795 60.8036 51.7302 60.5858 51.8299 60.5858L52.442 60.2516C52.8036 59.9556 53.523 59.5557 53.5582 58.299C53.5542 58.1508 53.5331 57.6359 53.4254 57.525C53.3838 57.4821 53.4739 57.4959 53.3788 57.3666C53.3145 57.2794 53.0791 56.6324 52.5863 56.4695C52.1607 56.3287 51.8212 56.3618 51.4131 56.5575C51.1148 56.7006 51.2921 56.7317 51.2503 56.8829L51.2459 56.9621C51.2476 56.9621 51.2484 56.9709 51.2503 56.9709L51.1791 57.0765C51.1827 57.0941 51.1844 57.1117 51.187 57.1117C51.2015 57.1601 51.2555 57.389 51.3303 57.314C51.4044 57.314 51.3734 57.4577 51.3875 57.4548C51.5079 57.4298 51.4503 57.3489 51.6065 57.7186C51.6233 57.7186 51.5262 57.8066 51.574 57.8066C51.6943 58.0741 51.5918 58.1189 51.5863 58.2289C51.5801 58.3548 51.3254 58.3314 51.1087 58.4047L50.9865 58.3343C50.7913 58.277 50.8567 57.9753 50.8563 57.9737C50.7951 57.8921 50.8535 57.8927 50.8377 57.8681L50.7972 57.7185C50.8303 57.7183 50.7564 57.6893 50.7948 57.6129ZM62.4135 57.6129C62.471 57.5308 62.4817 57.5604 62.5006 57.4633C62.5227 57.3498 62.6135 57.4383 62.615 57.3314C62.6175 57.1314 62.6919 57.2193 62.7065 57.0852C62.719 56.9692 62.746 57.0476 62.7523 56.9884C62.7611 56.9092 62.7795 56.8916 62.7988 56.8564C62.6091 56.3124 62.6692 56.3105 62.1753 56.1089C62.0083 56.0407 61.863 56.0762 61.5931 56.0561C61.23 56.029 60.7486 56.4549 60.534 56.7597C60.4195 56.9226 60.3295 57.1703 60.3185 57.182C60.19 57.318 60.0782 57.9305 60.074 58.1407C60.0492 59.3905 60.9143 60.3769 62.1313 60.6386C62.8991 60.8037 63.3483 60.5858 63.4497 60.5858L64.0611 60.2516C64.4272 59.9557 65.1427 59.5479 65.179 58.299C65.175 58.1505 65.1515 57.6346 65.0452 57.525C65.0051 57.4836 65.0926 57.4913 64.9987 57.3666C64.9385 57.2869 64.6995 56.6322 64.2054 56.4695C63.7796 56.3293 63.4401 56.3612 63.0321 56.5575C62.7295 56.7031 62.9172 56.7375 62.8703 56.8829L62.8668 56.9621C62.8678 56.9621 62.8694 56.9709 62.8703 56.9709L62.8062 57.1117C62.9212 57.4711 62.9027 57.2453 62.9979 57.3492C63.0452 57.4009 62.9167 57.4756 63.0726 57.4372C63.1284 57.4233 63.1044 57.4669 63.1931 57.6394C63.1931 57.6394 63.2455 57.7029 63.2142 57.745C63.1454 57.8375 63.2022 57.7887 63.2089 57.8154C63.2115 57.8242 63.2054 57.8418 63.2097 57.8418C63.3057 58.0631 63.2092 58.1437 63.2071 58.2289C63.2041 58.3505 62.9246 58.3386 62.7278 58.4047L62.6055 58.3343C62.4121 58.278 62.4761 57.9762 62.4753 57.9737C62.4139 57.8874 62.4745 57.8953 62.4567 57.8681L62.418 57.7185C62.4489 57.7183 62.3777 57.6844 62.4135 57.6129ZM32.862 46.3108C32.919 46.197 32.9239 46.2929 32.9491 46.1524C32.9652 46.0617 33.063 46.1191 33.0643 46.0204C33.0668 45.8204 33.1411 45.9085 33.1558 45.7741C33.1678 45.6644 33.1961 45.7276 33.2015 45.6861C33.2103 45.6069 33.2279 45.5893 33.2481 45.5543C33.1158 45.2897 33.2038 45.0482 32.7961 44.8682C32.3188 44.6575 32.3279 44.8108 32.0423 44.7538C31.6758 44.6809 30.9641 45.302 30.7846 45.8356C30.7462 45.9497 30.6742 45.9377 30.5849 46.4161C30.5531 46.5868 30.5289 46.561 30.5233 46.8383C30.4951 48.2402 31.5798 49.2916 33.0054 49.3802C33.8331 49.3802 33.6639 49.2866 33.899 49.2746L34.5111 48.9404C34.5542 48.8874 35.6767 48.2597 35.6273 46.9965C35.6211 46.8378 35.6033 46.3261 35.4945 46.2137C35.4623 46.1804 35.5329 46.15 35.4479 46.0554C35.3459 45.9418 34.9703 44.606 33.4814 45.2463C33.1817 45.3751 33.3649 45.4405 33.3196 45.5805L33.3153 45.6509C33.3171 45.6509 33.3188 45.6597 33.3196 45.6685C33.2175 45.7682 33.2372 45.7293 33.2932 45.9148C33.3369 46.0594 33.3895 46.0045 33.4111 46.0116C33.4798 46.0335 33.4347 46.1485 33.4577 46.1434C33.6289 46.1065 33.5131 46.1084 33.6423 46.3369L33.6758 46.4073C33.6798 46.4303 33.5886 46.5041 33.6574 46.5041C33.739 46.777 33.6935 46.8111 33.5835 47.0053C33.4815 47.0274 33.4459 47.085 33.331 47.0405L33.2254 47.1021C33.2102 47.0853 33.1839 47.1485 33.1761 47.0933C33.1735 47.0757 33.1595 47.0933 33.1515 47.0845C33.1444 47.0845 33.1356 47.0757 33.1294 47.0757C33.1215 47.0669 33.1135 47.0669 33.1065 47.0581C33.0977 47.0581 33.0881 47.0493 33.0809 47.0493C33.0575 47.026 32.9387 47.0186 32.9244 46.8383C32.9244 46.8295 32.9033 46.8207 32.9113 46.8119C32.9711 46.7473 32.8886 46.5921 32.899 46.5921C32.8972 46.5833 32.9219 46.5833 32.906 46.5657C32.8806 46.5217 32.8419 46.4601 32.8708 46.4601H32.8699L32.862 46.3108ZM10.5428 8.69287L10.2156 8.55207C10.2905 8.48791 10.5191 8.46007 10.622 8.44647C10.5353 8.35975 10.5087 8.49687 10.6396 8.27943C10.6063 8.23687 10.3382 8.21687 10.5147 8.15623C10.7679 8.06935 12.7163 7.74551 13.2052 7.66375C15.2697 7.33575 15.487 7.34823 17.5027 7.29431L18.3867 7.26791C18.7071 7.23783 18.7835 7.28295 18.8537 7.27671C19.535 7.21527 20.378 7.23079 21.0727 7.21511C21.3295 7.20631 21.5863 7.18871 21.8423 7.17991L23.3111 7.15351L27.4169 7.12711C27.7292 7.09191 28.0431 7.10951 28.3572 7.10071C28.5876 7.09191 28.8163 7.07431 29.0459 7.05671L29.8911 7.04791C30.4585 7.01623 31.0463 7.04615 31.5868 7.03031C31.7364 7.02151 31.8868 7.00391 32.0363 7.00391L34.2175 7.04791C36.9999 7.16199 40.2318 8.24103 42.442 9.92391C42.8347 10.2229 43.2926 10.5033 43.6259 10.865L44.15 11.3047C44.8107 11.9082 45.5718 12.7626 46.0823 13.5212C46.5206 14.1722 46.5297 14.2481 46.8185 14.9196C47.1351 15.6561 47.1681 15.6577 47.407 16.4764C47.766 17.7073 47.5547 17.2932 47.5547 17.7781C47.5547 17.865 47.4862 17.8893 47.5204 18.1388C47.2043 17.8609 47.2999 18.0508 47.2055 17.8925C47.0963 17.7092 47.0091 17.8105 46.8564 17.5759C46.5697 17.1354 46.3547 17.0994 46.2716 16.9602C45.8902 16.322 45.8796 16.2991 45.415 15.7465C45.2355 15.5329 44.682 14.7466 44.5046 14.6471C44.2873 14.5252 44.2683 14.3714 44.0438 14.2161C44.0342 14.2073 44.0227 14.2073 44.0156 14.1985C43.8723 14.005 43.6683 13.8994 43.487 13.7586L43.0692 13.3628L41.8281 12.3953C41.4023 12.0503 40.8523 11.7231 40.391 11.4101C40.0747 11.1956 38.7553 10.5572 38.3558 10.3986L37.4507 10.0644C36.2451 9.66455 34.5052 9.37511 33.206 9.33431C32.9958 9.32551 32.7838 9.34311 32.578 9.30791C32.2051 9.26391 31.8286 9.33431 31.4566 9.31671C31.0174 9.29783 30.5433 9.34327 30.1012 9.35191C28.4201 9.38455 26.7425 9.29719 25.0623 9.25511L22.4105 9.17591L19.5695 9.14071C18.4995 9.10663 17.3545 9.12583 16.2959 9.07911C16.0811 9.06967 15.8767 9.14839 15.6715 9.03511C15.5383 8.96151 14.9697 8.98983 14.7409 8.97351C14.3545 8.95111 13.4724 8.92023 13.1278 8.85911C12.694 8.78215 12.1492 8.97895 12.0179 8.84151C11.8807 8.69895 10.9828 8.87015 10.5428 8.69287ZM66.1491 71.4743C66.171 71.4831 66.1878 71.4919 66.222 71.5095C66.1126 71.5745 65.7827 71.6023 65.6423 71.6151C65.7463 71.6801 65.826 71.6044 65.6185 71.7822C65.6652 71.8241 66.0439 71.8442 65.7961 71.9053C65.2905 72.0301 64.0691 72.1295 63.4679 72.2132C61.9473 72.4249 59.7593 72.6546 58.2364 72.7233C58.0675 72.7321 57.8996 72.7233 57.7307 72.7321L54.9241 72.7849C54.5558 72.7884 54.4555 72.8225 54.071 72.7849H53.9382C52.9351 72.8485 51.7967 72.8263 50.7833 72.8465L49.6883 72.8817C46.6015 72.9313 43.5127 72.889 40.4267 72.9609L39.1302 72.9961C38.07 72.9863 36.6321 72.8327 35.6287 72.5914C35.4071 72.5386 35.1783 72.5122 34.9585 72.4594C33.8807 72.1676 32.4526 71.6489 31.4315 71.1402C29.5638 70.2097 28.1393 69.1117 26.6926 67.5868C25.2518 66.0682 24.6862 64.9786 23.7004 63.2506C23.6089 63.0924 23.5281 62.9164 23.4383 62.7581C23.1076 62.1749 22.7641 61.6033 22.4691 60.9991L21.6335 59.5391C21.1671 58.6996 19.7227 56.0117 19.5103 55.3524C19.3051 54.7154 18.922 54.0529 18.6791 53.3559C18.3991 52.5522 18.2489 52.3293 18.0371 51.4385C18.0089 51.3197 18.0812 51.3708 18.0539 51.0954L17.8516 51.7023L17.4382 53.2327C17.4567 53.3338 17.35 53.3093 17.3273 53.3559C17.2652 53.494 17.151 53.8372 17.0467 53.9364C16.9617 54.0223 17.1067 54.2178 16.9763 54.2178C16.8727 54.2178 16.8852 54.421 16.8478 54.4905C16.8447 54.4961 16.6033 54.7109 16.5337 54.5521C16.5268 54.5309 16.5183 54.5103 16.5083 54.4905L16.3499 54.4465C16.3023 54.4308 16.2379 54.6105 16.1159 54.253C15.9659 53.8132 15.6684 53.3199 15.7219 52.8458L15.7807 52.2742C15.7555 52.1726 15.823 52.1892 15.8089 52.1509L15.998 50.6557C16.0799 50.2209 16.1564 49.9532 16.1502 49.5212C16.1487 49.4265 16.1886 49.489 16.1844 49.3013L16.2275 49.0287C16.3619 48.3188 17.1771 47.9465 17.7895 48.3074C17.9395 48.3957 18.0153 48.3949 18.0491 48.413C18.4804 48.6442 18.4793 48.5873 18.7606 48.7121L19.8838 49.2309L20.7527 49.8026L21.0201 49.9522C21.1801 50.0626 21.6126 50.4029 21.6526 50.5855C21.69 50.757 21.8099 50.8215 21.8654 51.0165C21.9881 51.4469 22.0323 51.3676 21.9401 51.8257C21.911 51.9401 21.911 51.9401 21.9163 52.0015C21.7815 52.0613 21.799 52.1183 21.7588 52.0893C21.7143 52.0574 21.6731 52.1807 21.5891 52.1597C21.3961 52.1116 21.3907 52.3397 21.1686 52.1685C21.0841 52.1034 20.9129 52.1623 20.8115 52.0981C20.5835 51.9541 20.423 52.0527 20.3303 52.0013C20.25 51.9103 20.2121 52.0541 20.0172 51.9485L19.771 51.8869L18.9073 51.4559C19.2409 51.9607 19.4865 52.0892 19.6057 52.2826C19.8897 52.7441 20.1423 53.2295 20.4598 53.6722C20.9284 54.3263 21.1734 54.7801 21.5891 55.4489L21.911 55.9325C22.1582 56.1882 22.2977 56.5749 22.4527 56.7154C22.4641 56.7242 22.4774 56.7418 22.4844 56.7506C22.6427 57.0761 22.8715 57.3223 23.0772 57.6037C23.2497 57.8332 23.398 58.1681 23.5276 58.3513C24.438 59.6481 25.4766 61.5844 26.3095 63.0129C27.5991 65.174 28.9121 66.7061 31.0203 68.1405C31.8948 68.7356 33.0259 69.3335 34.0335 69.7237L35.5763 70.2426L36.5174 70.4449C37.2049 70.6127 38.8945 70.6967 39.6283 70.7087C39.7716 70.7087 39.915 70.6999 40.0574 70.6999C42.619 70.7247 45.2617 70.8257 47.8379 70.8583L57.1503 70.9639L57.8663 70.9727C58.5014 70.9458 58.3763 71.0476 58.6139 71.0519C58.8548 71.0607 59.095 71.0607 59.3342 71.0871C59.4819 71.0959 59.6358 71.0783 59.7871 71.0871C60.3598 71.1103 61.5607 71.1367 62.0801 71.2015C62.6297 71.27 63.4799 71.0892 63.6588 71.2191C63.7382 71.2767 64.3791 71.2953 64.4926 71.2895C65.3094 71.2482 65.4126 71.2767 66.1491 71.4743Z" fill="white"/>
</svg>
